<mxfile><diagram id="-buf4lGA7eBUqtwilpqc" name="Page-1"><mxGraphModel dx="364" dy="338" grid="1" gridSize="10" guides="1" tooltips="1" connect="1" arrows="1" fold="1" page="1" pageScale="1" pageWidth="850" pageHeight="1100" background="#ffffff" math="0" shadow="1"><root><mxCell id="0"/><mxCell id="1" parent="0"/><mxCell id="2" value="" style="rounded=0;whiteSpace=wrap;html=1;labelBackgroundColor=#FFFFFF;fontColor=#000000;" vertex="1" parent="1"><mxGeometry x="160" y="82" width="230" height="250" as="geometry"/></mxCell><mxCell id="3" value="Main&lt;br&gt;Memory" style="rounded=0;whiteSpace=wrap;html=1;" vertex="1" parent="1"><mxGeometry x="210" y="194" width="140" height="110" as="geometry"/></mxCell><mxCell id="4" value="input" style="rounded=0;whiteSpace=wrap;html=1;" vertex="1" parent="1"><mxGeometry x="20" y="202" width="120" height="60" as="geometry"/></mxCell><mxCell id="5" value="output" style="rounded=0;whiteSpace=wrap;html=1;" vertex="1" parent="1"><mxGeometry x="410" y="203" width="120" height="60" as="geometry"/></mxCell><mxCell id="7" value="ALU" style="rounded=0;whiteSpace=wrap;html=1;" vertex="1" parent="1"><mxGeometry x="220" y="120" width="120" height="20" as="geometry"/></mxCell><mxCell id="9" value="CU" style="rounded=0;whiteSpace=wrap;html=1;" vertex="1" parent="1"><mxGeometry x="220" y="140" width="120" height="20" as="geometry"/></mxCell><mxCell id="10" value="CPU" style="text;html=1;resizable=0;autosize=1;align=center;verticalAlign=middle;points=[];fillColor=none;strokeColor=none;rounded=0;" vertex="1" parent="1"><mxGeometry x="175" y="130" width="40" height="20" as="geometry"/></mxCell><mxCell id="11" value="&lt;font style=&quot;font-size: 10px&quot;&gt;input buffer&lt;/font&gt;" style="rounded=0;whiteSpace=wrap;html=1;fontFamily=Helvetica;labelBackgroundColor=none;horizontal=0;" vertex="1" parent="1"><mxGeometry x="160" y="202" width="50" height="60" as="geometry"/></mxCell><mxCell id="14" value="&lt;font style=&quot;font-size: 9px&quot;&gt;output buffer&lt;/font&gt;" style="rounded=0;whiteSpace=wrap;html=1;horizontal=0;" vertex="1" parent="1"><mxGeometry x="350" y="202" width="40" height="60" as="geometry"/></mxCell><mxCell id="17" value="File" style="rounded=0;whiteSpace=wrap;html=1;fontFamily=Helvetica;fontSize=10;" vertex="1" parent="1"><mxGeometry x="212" y="350" width="120" height="40" as="geometry"/></mxCell><mxCell id="18" value="HDD" style="aspect=fixed;perimeter=ellipsePerimeter;html=1;align=center;shadow=0;dashed=0;spacingTop=3;image;image=img/lib/active_directory/hard_disk.svg;fontFamily=Helvetica;fontSize=10;" vertex="1" parent="1"><mxGeometry x="306" y="359" width="50" height="27" as="geometry"/></mxCell><mxCell id="22" value="" style="endArrow=classic;startArrow=classic;html=1;fontFamily=Helvetica;fontSize=10;exitX=0.5;exitY=0;exitDx=0;exitDy=0;entryX=0.447;entryY=1.016;entryDx=0;entryDy=0;entryPerimeter=0;" edge="1" parent="1" source="17" target="3"><mxGeometry width="50" height="50" relative="1" as="geometry"><mxPoint x="250" y="280" as="sourcePoint"/><mxPoint x="300" y="230" as="targetPoint"/></mxGeometry></mxCell><mxCell id="27" value="" style="endArrow=classic;html=1;fontFamily=Helvetica;fontSize=10;" edge="1" parent="1"><mxGeometry width="50" height="50" relative="1" as="geometry"><mxPoint x="140" y="230" as="sourcePoint"/><mxPoint x="160" y="230" as="targetPoint"/></mxGeometry></mxCell><mxCell id="29" value="" style="endArrow=classic;html=1;fontFamily=Helvetica;fontSize=10;entryX=0;entryY=0.5;entryDx=0;entryDy=0;exitX=1;exitY=0.5;exitDx=0;exitDy=0;" edge="1" parent="1" source="14" target="5"><mxGeometry width="50" height="50" relative="1" as="geometry"><mxPoint x="390" y="330" as="sourcePoint"/><mxPoint x="440" y="280" as="targetPoint"/></mxGeometry></mxCell><mxCell id="31" value="" style="endArrow=classic;startArrow=classic;html=1;fontFamily=Helvetica;fontSize=10;entryX=0.5;entryY=1;entryDx=0;entryDy=0;exitX=0.5;exitY=0;exitDx=0;exitDy=0;" edge="1" parent="1" source="3" target="9"><mxGeometry width="50" height="50" relative="1" as="geometry"><mxPoint x="250" y="280" as="sourcePoint"/><mxPoint x="300" y="230" as="targetPoint"/></mxGeometry></mxCell></root></mxGraphModel></diagram></mxfile>